<svg width="24" height="24" viewBox="0 0 24 24" fill="none" xmlns="http://www.w3.org/2000/svg">
<g clip-path="url(#clip0_288_8006)">
<path d="M4.28182 9.33263C4.74288 8.05833 5.52648 6.91902 6.55952 6.02102C7.59255 5.12302 8.84133 4.4956 10.1894 4.19729C11.5374 3.89898 12.9407 3.93952 14.2684 4.31511C15.596 4.69071 16.8048 5.38912 17.7818 6.34518L22 10M2 14L6.21818 17.6548C7.19522 18.6109 8.40398 19.3093 9.73165 19.6849C11.0593 20.0605 12.4626 20.101 13.8106 19.8027C15.1587 19.5044 16.4075 18.877 17.4405 17.979C18.4735 17.081 19.2571 15.9417 19.7182 14.6674" stroke="#F9FAFA" stroke-width="1.13" stroke-linecap="round" stroke-linejoin="round"/>
<path d="M22 5V10H17" stroke="#BEFF55" stroke-width="1.13" stroke-linecap="round" stroke-linejoin="round"/>
<path d="M2 19V14H7" stroke="#BEFF55" stroke-width="1.13" stroke-linecap="round" stroke-linejoin="round"/>
</g>
<defs>
<clipPath id="clip0_288_8006">
<rect width="24" height="24" fill="white"/>
</clipPath>
</defs>
</svg>
