<svg width="30" height="30" viewBox="0 0 30 30" fill="none" xmlns="http://www.w3.org/2000/svg">
<path d="M11.9531 19.2656C13.3594 17.3906 12.6562 15.0469 12.6562 15.0469C12.6565 15.047 15.9375 16.4531 15.7832 20.4375C17.1094 19.9688 17.5781 17.625 17.5781 17.625C17.5781 17.625 19.2188 19.7344 19.2188 22.0781C19.2188 24.4081 17.33 26.2969 15 26.2969C12.67 26.2969 10.7812 24.4081 10.7812 22.0779C10.7813 21.0478 11.3516 20.0677 11.9531 19.2656Z" stroke="#BEFF55" stroke-miterlimit="10" stroke-linecap="round" stroke-linejoin="round"/>
<path d="M8.90625 12.2344C11.7188 8.48438 10.3125 3.70313 10.3125 3.70313C10.3131 3.70336 16.875 6.60938 16.5665 14.5781C19.2188 13.6406 20.1562 8.95313 20.1562 8.95313C20.1562 8.95313 23.4375 13.1719 23.4375 17.8594C23.4375 22.5193 19.6599 26.2969 15 26.2969C10.3401 26.2969 6.5625 22.5193 6.5625 17.8589C6.56264 15.7988 7.7032 13.8384 8.90625 12.2344Z" stroke="#F9FAFA" stroke-miterlimit="10" stroke-linecap="round" stroke-linejoin="round"/>
<path d="M24.375 4.40625C24.375 4.79456 24.0602 5.10938 23.6719 5.10938C23.2836 5.10938 22.9688 4.79456 22.9688 4.40625C22.9688 4.01794 23.2836 3.70312 23.6719 3.70312C24.0602 3.70312 24.375 4.01794 24.375 4.40625Z" fill="#BEFF55"/>
<path d="M19.2188 4.40625C19.2188 4.79456 18.9039 5.10938 18.5156 5.10938C18.1273 5.10938 17.8125 4.79456 17.8125 4.40625C17.8125 4.01794 18.1273 3.70312 18.5156 3.70312C18.9039 3.70312 19.2188 4.01794 19.2188 4.40625Z" fill="#BEFF55"/>
<path d="M5.625 7.3125C5.625 7.70081 5.93981 8.01562 6.32812 8.01562C6.71644 8.01562 7.03125 7.70081 7.03125 7.3125C7.03125 6.92419 6.71644 6.60938 6.32812 6.60938C5.93981 6.60938 5.625 6.92419 5.625 7.3125Z" fill="#BEFF55"/>
</svg>
