<svg width="30" height="30" viewBox="0 0 30 30" fill="none" xmlns="http://www.w3.org/2000/svg">
<path d="M25.7747 5.81203C25.7279 4.95398 25.0455 4.27164 24.1874 4.22481C22.4561 4.13022 19.0681 4.22224 15.8284 5.89789C14.1769 6.75215 12.4302 8.20048 11.0363 9.87153C11.0191 9.89212 11.0024 9.91284 10.9854 9.93347L7.82199 10.1778C7.30129 10.2181 6.83749 10.491 6.54951 10.9266L4.39133 14.1909C4.17292 14.5212 4.13819 14.9346 4.29839 15.2968C4.45863 15.6589 4.78787 15.9113 5.17918 15.9719L7.84435 16.3847C7.83494 16.4365 7.82549 16.4883 7.81685 16.5401C7.72812 17.0708 7.90397 17.6165 8.2873 17.9998L11.9997 21.7122C12.3175 22.03 12.7469 22.2052 13.187 22.2052C13.2776 22.2052 13.3687 22.1978 13.4594 22.1826C13.5112 22.174 13.563 22.1645 13.6148 22.1551L14.0276 24.8203C14.0882 25.2116 14.3406 25.5409 14.7027 25.7011C14.8533 25.7678 15.0128 25.8007 15.1715 25.8007C15.3944 25.8007 15.6157 25.7358 15.8086 25.6082L19.0729 23.45C19.5085 23.162 19.7814 22.6982 19.8216 22.1775L20.0659 19.0142C20.0866 18.9971 20.1073 18.9804 20.1279 18.9633C21.799 17.5693 23.2474 15.8227 24.1016 14.1711C25.7773 10.9313 25.8692 7.54329 25.7747 5.81203ZM18.3749 22.3942L15.2524 24.4586L14.85 21.8612C16.1697 21.4732 17.4752 20.8518 18.7189 20.0192L18.5597 22.08C18.5498 22.2085 18.4824 22.3231 18.3749 22.3942ZM12.8946 20.8172L9.18223 17.1048C9.08752 17.0101 9.04372 16.877 9.0652 16.7488C9.17557 16.0888 9.34707 15.4605 9.55937 14.8687L15.1296 20.4389C14.4188 20.6935 13.7821 20.8454 13.2507 20.9343C13.1223 20.9556 12.9894 20.912 12.8946 20.8172ZM7.91949 11.4398L9.98021 11.2806C9.14764 12.5243 8.52618 13.8298 8.13816 15.1495L5.54079 14.7472L7.60531 11.6246C7.67644 11.5171 7.79098 11.4497 7.91949 11.4398ZM19.3173 17.9912C18.2949 18.844 17.3025 19.4608 16.3877 19.9072L10.0921 13.6116C10.6768 12.4174 11.3903 11.4231 12.0082 10.6823C13.2982 9.13583 14.9025 7.80175 16.4099 7.02208C19.3832 5.48414 22.5158 5.40132 24.1185 5.48857C24.3307 5.50013 24.4994 5.66884 24.511 5.88101C24.5983 7.48372 24.5153 10.6163 22.9774 13.5896C22.1978 15.097 20.8637 16.7013 19.3173 17.9912Z" fill="#F9FAFA"/>
<path d="M18.9958 14.1663C19.8059 14.1663 20.6164 13.8579 21.2332 13.2411C21.8308 12.6435 22.1599 11.8489 22.1599 11.0037C22.1599 10.1586 21.8308 9.36397 21.2332 8.76635C19.9995 7.53259 17.9921 7.53268 16.7584 8.76635C16.1608 9.36397 15.8317 10.1586 15.8317 11.0037C15.8317 11.8489 16.1608 12.6435 16.7584 13.2411C17.3753 13.858 18.1854 14.1664 18.9958 14.1663ZM17.6533 9.66128C18.0234 9.29115 18.5096 9.1061 18.9957 9.1061C19.4819 9.1061 19.9681 9.29115 20.3382 9.66128C20.6967 10.0198 20.8942 10.4966 20.8942 11.0037C20.8942 11.5108 20.6967 11.9875 20.3382 12.3461C19.598 13.0863 18.3935 13.0863 17.6533 12.3461C17.2947 11.9875 17.0972 11.5108 17.0972 11.0037C17.0972 10.4966 17.2948 10.0198 17.6533 9.66128Z" fill="#BEFF55"/>
<path d="M4.84486 22.0008C5.00683 22.0008 5.16879 21.9391 5.29233 21.8154L7.35848 19.7493C7.60563 19.5021 7.60563 19.1015 7.35848 18.8543C7.11138 18.6072 6.71066 18.6072 6.46351 18.8543L4.3974 20.9205C4.15025 21.1676 4.15025 21.5683 4.3974 21.8154C4.52093 21.939 4.68289 22.0008 4.84486 22.0008Z" fill="#BEFF55"/>
<path d="M9.25201 20.7479C9.0049 20.5007 8.60418 20.5007 8.35704 20.7479L4.3847 24.7202C4.13755 24.9674 4.13755 25.3681 4.3847 25.6152C4.50828 25.7388 4.6702 25.8005 4.83217 25.8005C4.99413 25.8005 5.1561 25.7388 5.27963 25.6152L9.25197 21.6428C9.49916 21.3957 9.49916 20.995 9.25201 20.7479Z" fill="#BEFF55"/>
<path d="M10.2507 22.6414L8.18451 24.7076C7.93736 24.9547 7.93736 25.3554 8.18451 25.6025C8.30808 25.7261 8.47005 25.7879 8.63197 25.7879C8.79389 25.7879 8.9559 25.7262 9.07944 25.6025L11.1456 23.5364C11.3927 23.2892 11.3927 22.8886 11.1456 22.6414C10.8985 22.3943 10.4978 22.3943 10.2507 22.6414Z" fill="#BEFF55"/>
</svg>
