<svg width="30" height="30" viewBox="0 0 30 30" fill="none" xmlns="http://www.w3.org/2000/svg">
<path d="M11.592 19.4048L10.082 17.8948C9.49636 17.3092 9.33543 16.4217 9.67815 15.6677L10.755 13.2987C11.3102 12.0772 12.0351 10.9403 12.9083 9.92158L13.0718 9.73087C14.0642 8.57306 15.2547 7.60114 16.5877 6.86058C18.2053 5.96194 19.9978 5.42324 21.8428 5.28132L24.3368 5.08948C24.9482 5.04245 25.4576 5.55179 25.4105 6.16323L25.2187 8.65722C25.0768 10.5022 24.5381 12.2947 23.6394 13.9123C22.8989 15.2453 21.9269 16.4358 20.7691 17.4282L20.5784 17.5917C19.5597 18.4649 18.4228 19.1898 17.2013 19.745L14.8323 20.8219C14.0783 21.1646 13.1908 21.0036 12.6052 20.418L11.0952 18.908" stroke="#F9FAFA" stroke-width="1.3"/>
<path d="M5 21.5L7.5 19" stroke="#BEFF55" stroke-width="1.3" stroke-linecap="round"/>
<path d="M9 25L11 23" stroke="#BEFF55" stroke-width="1.3" stroke-linecap="round"/>
<path d="M5 25.5L9.5 21" stroke="#BEFF55" stroke-width="1.3" stroke-linecap="round"/>
<path d="M19.5 18.5V22.4458C19.5 22.7905 19.3224 23.111 19.03 23.2938L16.6994 24.7504C16.1141 25.1162 15.3429 24.7931 15.1932 24.1193L14.5 21" stroke="#F9FAFA" stroke-width="1.3" stroke-linecap="round"/>
<circle cx="19.5" cy="11" r="3" stroke="#BEFF55" stroke-width="1.3"/>
<path d="M12 10.5L8.42125 10.9473C8.15204 10.981 7.90806 11.1226 7.74528 11.3396L5.92997 13.76C5.49406 14.3413 5.80383 15.1786 6.51304 15.3362L9.5 16" stroke="#F9FAFA" stroke-width="1.3" stroke-linecap="round"/>
</svg>