<svg width="24" height="24" viewBox="0 0 24 24" fill="none" xmlns="http://www.w3.org/2000/svg">
<path d="M22.7747 2.81203C22.7279 1.95398 22.0455 1.27164 21.1874 1.22481C19.4561 1.13022 16.0681 1.22224 12.8284 2.89789C11.1769 3.75215 9.43021 5.20048 8.0363 6.87153C8.01913 6.89212 8.00242 6.91284 7.98538 6.93347L4.82199 7.17783C4.30129 7.21808 3.83749 7.49101 3.54951 7.92657L1.39133 11.1909C1.17292 11.5212 1.13819 11.9346 1.29839 12.2968C1.45863 12.6589 1.78787 12.9113 2.17918 12.9719L4.84435 13.3847C4.83494 13.4365 4.82549 13.4883 4.81685 13.5401C4.72812 14.0708 4.90397 14.6165 5.2873 14.9998L8.99966 18.7122C9.31748 19.03 9.74693 19.2052 10.187 19.2052C10.2776 19.2052 10.3687 19.1978 10.4594 19.1826C10.5112 19.174 10.563 19.1645 10.6148 19.1551L11.0276 21.8203C11.0882 22.2116 11.3406 22.5409 11.7027 22.7011C11.8533 22.7678 12.0128 22.8007 12.1715 22.8007C12.3944 22.8007 12.6157 22.7358 12.8086 22.6082L16.0729 20.45C16.5085 20.162 16.7814 19.6982 16.8216 19.1775L17.0659 16.0142C17.0866 15.9971 17.1073 15.9804 17.1279 15.9633C18.799 14.5693 20.2474 12.8227 21.1016 11.1711C22.7773 7.93134 22.8692 4.54329 22.7747 2.81203ZM15.3749 19.3942L12.2524 21.4586L11.85 18.8612C13.1697 18.4732 14.4752 17.8518 15.7189 17.0192L15.5597 19.08C15.5498 19.2085 15.4824 19.3231 15.3749 19.3942ZM9.89464 17.8172L6.18223 14.1048C6.08752 14.0101 6.04372 13.877 6.0652 13.7488C6.17557 13.0888 6.34707 12.4605 6.55937 11.8687L12.1296 17.4389C11.4188 17.6935 10.7821 17.8454 10.2507 17.9343C10.1223 17.9556 9.98935 17.912 9.89464 17.8172ZM4.91949 8.43977L6.98021 8.28059C6.14764 9.5243 5.52618 10.8298 5.13816 12.1495L2.54079 11.7472L4.60531 8.62464C4.67644 8.51706 4.79098 8.44968 4.91949 8.43977ZM16.3173 14.9912C15.2949 15.844 14.3025 16.4608 13.3877 16.9072L7.0921 10.6116C7.67676 9.41743 8.39032 8.42306 9.00823 7.68229C10.2982 6.13583 11.9025 4.80175 13.4099 4.02208C16.3832 2.48414 19.5158 2.40132 21.1185 2.48857C21.3307 2.50013 21.4994 2.66884 21.511 2.88101C21.5983 4.48372 21.5153 7.61631 19.9774 10.5896C19.1978 12.097 17.8637 13.7013 16.3173 14.9912Z" fill="currentColor"/>
<path d="M15.9958 11.1663C16.8059 11.1663 17.6164 10.8579 18.2332 10.2411C18.8308 9.64346 19.1599 8.84886 19.1599 8.00371C19.1599 7.15857 18.8308 6.36397 18.2332 5.76635C16.9995 4.53259 14.9921 4.53268 13.7584 5.76635C13.1608 6.36397 12.8317 7.15857 12.8317 8.00371C12.8317 8.84886 13.1608 9.64346 13.7584 10.2411C14.3753 10.858 15.1854 11.1664 15.9958 11.1663ZM14.6533 6.66128C15.0234 6.29115 15.5096 6.1061 15.9957 6.1061C16.4819 6.1061 16.9681 6.29115 17.3382 6.66128C17.6967 7.01985 17.8942 7.49659 17.8942 8.00367C17.8942 8.51075 17.6967 8.98754 17.3382 9.34611C16.598 10.0863 15.3935 10.0863 14.6533 9.34611C14.2947 8.98754 14.0972 8.51079 14.0972 8.00371C14.0972 7.49664 14.2948 7.01985 14.6533 6.66128Z" fill="#BEFF55"/>
<path d="M1.84486 19.0008C2.00683 19.0008 2.16879 18.9391 2.29233 18.8154L4.35848 16.7493C4.60563 16.5021 4.60563 16.1015 4.35848 15.8543C4.11138 15.6072 3.71066 15.6072 3.46351 15.8543L1.3974 17.9205C1.15025 18.1676 1.15025 18.5683 1.3974 18.8154C1.52093 18.939 1.68289 19.0008 1.84486 19.0008Z" fill="#BEFF55"/>
<path d="M6.25201 17.7479C6.0049 17.5007 5.60418 17.5007 5.35704 17.7479L1.3847 21.7202C1.13755 21.9674 1.13755 22.3681 1.3847 22.6152C1.50828 22.7388 1.6702 22.8005 1.83217 22.8005C1.99413 22.8005 2.1561 22.7388 2.27963 22.6152L6.25197 18.6428C6.49916 18.3957 6.49916 17.995 6.25201 17.7479Z" fill="#BEFF55"/>
<path d="M7.25067 19.6414L5.18451 21.7076C4.93736 21.9547 4.93736 22.3554 5.18451 22.6025C5.30808 22.7261 5.47005 22.7879 5.63197 22.7879C5.79389 22.7879 5.9559 22.7262 6.07944 22.6025L8.14559 20.5364C8.39274 20.2892 8.39274 19.8886 8.14559 19.6414C7.89849 19.3943 7.49777 19.3943 7.25067 19.6414Z" fill="#BEFF55"/>
</svg>
