<svg width="30" height="30" viewBox="0 0 30 30" fill="none" xmlns="http://www.w3.org/2000/svg">
<path d="M14.3048 3.67263C14.6925 3.29759 15.3077 3.2976 15.6954 3.67263L17.6154 5.52998C17.837 5.74444 18.1453 5.84459 18.4507 5.8014L21.0957 5.42728C21.6298 5.35174 22.1275 5.71337 22.2207 6.24465L22.6822 8.87578C22.7355 9.17959 22.926 9.44181 23.1985 9.58637L25.5582 10.8384C26.0347 11.0912 26.2248 11.6763 25.9879 12.1609L24.8148 14.5608C24.6793 14.8379 24.6793 15.1621 24.8148 15.4392L25.9879 17.8391C26.2248 18.3237 26.0347 18.9088 25.5582 19.1616L23.1985 20.4136C22.926 20.5582 22.7355 20.8204 22.6822 21.1242L22.2207 23.7554C22.1275 24.2866 21.6298 24.6483 21.0957 24.5727L18.4507 24.1986C18.1453 24.1554 17.837 24.2556 17.6154 24.47L15.6954 26.3274C15.3077 26.7024 14.6925 26.7024 14.3048 26.3274L12.3849 24.47C12.1632 24.2556 11.855 24.1554 11.5495 24.1986L8.90457 24.5727C8.37049 24.6483 7.87275 24.2866 7.77956 23.7554L7.31802 21.1242C7.26472 20.8204 7.07421 20.5582 6.80175 20.4136L4.44201 19.1616C3.96553 18.9088 3.77541 18.3237 4.01229 17.8391L5.18544 15.4392C5.3209 15.1621 5.3209 14.8379 5.18544 14.5608L4.01229 12.1609C3.77541 11.6763 3.96554 11.0912 4.44201 10.8384L6.80175 9.58637C7.07422 9.44181 7.26472 9.17959 7.31802 8.87578L7.77956 6.24465C7.87275 5.71337 8.37049 5.35174 8.90457 5.42728L11.5495 5.8014C11.855 5.84459 12.1632 5.74444 12.3849 5.52998L14.3048 3.67263Z" stroke="#F9FAFA"/>
<path d="M14.5434 10.0245C14.7196 9.62929 15.2806 9.62929 15.4568 10.0245L16.5403 12.4552C16.6129 12.6182 16.767 12.7301 16.9445 12.7488L19.591 13.0282C20.0213 13.0736 20.1947 13.6071 19.8732 13.8968L17.8963 15.6784C17.7637 15.7978 17.7049 15.9789 17.7419 16.1535L18.2941 18.7568C18.3839 19.1801 17.93 19.5099 17.5552 19.2937L15.2499 17.9641C15.0953 17.8749 14.9049 17.8749 14.7503 17.9641L12.4451 19.2937C12.0702 19.5099 11.6164 19.1801 11.7061 18.7568L12.2583 16.1535C12.2953 15.9789 12.2365 15.7978 12.1039 15.6784L10.127 13.8968C9.80559 13.6071 9.97895 13.0736 10.4093 13.0282L13.0558 12.7488C13.2333 12.7301 13.3873 12.6182 13.46 12.4552L14.5434 10.0245Z" fill="#BEFF55"/>
</svg>
