<svg width="30" height="30" viewBox="0 0 30 30" fill="none" xmlns="http://www.w3.org/2000/svg">
<path d="M16.5198 25.5625H13.4802C12.9506 25.5625 12.4987 25.1796 12.4116 24.6573L11.75 20.6875H18.25L17.5884 24.6573C17.5013 25.1796 17.0494 25.5625 16.5198 25.5625Z" stroke="#BEFF55" stroke-width="1.08333" stroke-linecap="round" stroke-linejoin="round"/>
<path d="M15 20.6875H18.25C19.0625 17.4375 22.3125 14.1875 22.3125 11.75C22.3125 10.7897 22.1234 9.83882 21.7559 8.95163C21.3884 8.06443 20.8497 7.25831 20.1707 6.57928C19.4917 5.90025 18.6856 5.36162 17.7984 4.99413C16.9112 4.62664 15.9603 4.4375 15 4.4375C14.0397 4.4375 13.0888 4.62664 12.2016 4.99413C11.3144 5.36162 10.5083 5.90025 9.82928 6.57928C9.15025 7.25831 8.61162 8.06443 8.24413 8.95163C7.87664 9.83882 7.6875 10.7897 7.6875 11.75C7.6875 14.1875 10.9375 17.4375 11.75 20.6875H15ZM15 20.6875V12.5625M15 12.5625L16.625 10.9375M15 12.5625L13.375 10.9375" stroke="#F9FAFA" stroke-width="1.08333" stroke-linecap="round" stroke-linejoin="round"/>
<path d="M23.9375 2.8125L22.3125 4.4375M6.0625 2.8125L7.6875 4.4375M27.1875 13.375H24.75M5.25 13.375H2.8125" stroke="#BEFF55" stroke-width="1.08333" stroke-linecap="round" stroke-linejoin="round"/>
</svg>
