<svg width="40" height="40" viewBox="0 0 40 40" fill="none" xmlns="http://www.w3.org/2000/svg">
<g filter="url(#filter0_b_371_20225)">
<g filter="url(#filter1_b_371_20225)">
<rect width="40" height="40" rx="10" fill="#F9FAFA" fill-opacity="0.05"/>
</g>
<path d="M24.8698 15.8446C24.8659 15.8375 24.8595 15.832 24.8516 15.8289C23.9439 15.4385 22.9861 15.1601 22.002 15.0007C21.993 14.9991 21.9838 15.0002 21.9756 15.0039C21.9673 15.0075 21.9606 15.0135 21.9562 15.021C21.8257 15.2429 21.7073 15.4709 21.6014 15.704C20.5406 15.5531 19.4616 15.5531 18.4008 15.704C18.2942 15.4703 18.1738 15.2423 18.0404 15.021C18.0358 15.0137 18.029 15.0078 18.0209 15.0042C18.0127 15.0006 18.0035 14.9994 17.9946 15.0007C17.0104 15.1598 16.0525 15.4382 15.1449 15.829C15.1371 15.8321 15.1306 15.8373 15.1261 15.8441C13.3111 18.3851 12.8139 20.8636 13.0579 23.3115C13.0585 23.3175 13.0605 23.3233 13.0636 23.3286C13.0668 23.3339 13.071 23.3385 13.0761 23.3422C14.1329 24.0758 15.315 24.6358 16.5719 24.9982C16.5808 25.0007 16.5902 25.0006 16.599 24.9979C16.6078 24.9952 16.6155 24.99 16.621 24.9831C16.891 24.6388 17.1302 24.2741 17.3362 23.8929C17.339 23.8877 17.3406 23.8819 17.3409 23.8761C17.3412 23.8702 17.3402 23.8644 17.3379 23.8589C17.3356 23.8534 17.3321 23.8485 17.3276 23.8444C17.3232 23.8403 17.3178 23.8371 17.3119 23.8351C16.9347 23.6998 16.5696 23.5367 16.2198 23.3473C16.2135 23.3438 16.2082 23.3389 16.2043 23.333C16.2005 23.3271 16.1982 23.3204 16.1978 23.3135C16.1973 23.3067 16.1987 23.2998 16.2018 23.2935C16.2049 23.2872 16.2096 23.2817 16.2154 23.2776C16.2888 23.226 16.3622 23.1724 16.4323 23.1183C16.4385 23.1134 16.4461 23.1104 16.4541 23.1094C16.4621 23.1083 16.4702 23.1094 16.4776 23.1125C18.7687 24.0928 21.2492 24.0928 23.5133 23.1125C23.5207 23.1092 23.5289 23.108 23.537 23.1089C23.5451 23.1098 23.5528 23.1129 23.5591 23.1177C23.6292 23.1719 23.7026 23.226 23.7765 23.2776C23.7824 23.2817 23.7872 23.2871 23.7903 23.2934C23.7934 23.2996 23.7948 23.3065 23.7945 23.3134C23.7941 23.3203 23.7919 23.327 23.7881 23.3329C23.7843 23.3388 23.779 23.3438 23.7727 23.3473C23.4237 23.5383 23.0582 23.7013 22.6801 23.8346C22.6742 23.8367 22.6688 23.8399 22.6644 23.8441C22.66 23.8483 22.6565 23.8533 22.6542 23.8588C22.652 23.8643 22.651 23.8701 22.6514 23.876C22.6517 23.8819 22.6534 23.8877 22.6562 23.8929C22.8657 24.272 23.1046 24.6362 23.3709 24.9825C23.3763 24.9896 23.3839 24.995 23.3927 24.9978C23.4016 25.0006 23.4111 25.0007 23.42 24.9981C24.6791 24.6369 25.8633 24.0769 26.9215 23.3422C26.9266 23.3387 26.9309 23.3342 26.9341 23.329C26.9372 23.3238 26.9391 23.318 26.9397 23.312C27.2317 20.482 26.4508 18.0238 24.8698 15.8446ZM17.6784 21.821C16.9886 21.821 16.4202 21.2276 16.4202 20.4987C16.4202 19.7699 16.9775 19.1764 17.6784 19.1764C18.3847 19.1764 18.9476 19.775 18.9365 20.4987C18.9365 21.2276 18.3792 21.821 17.6784 21.821ZM22.3303 21.821C21.6405 21.821 21.0721 21.2276 21.0721 20.4987C21.0721 19.7699 21.6295 19.1764 22.3303 19.1764C23.0367 19.1764 23.5995 19.775 23.5885 20.4987C23.5885 21.2276 23.0367 21.821 22.3303 21.821Z" fill="white"/>
</g>
<defs>
<filter id="filter0_b_371_20225" x="-10" y="-10" width="60" height="60" filterUnits="userSpaceOnUse" color-interpolation-filters="sRGB">
<feFlood flood-opacity="0" result="BackgroundImageFix"/>
<feGaussianBlur in="BackgroundImageFix" stdDeviation="5"/>
<feComposite in2="SourceAlpha" operator="in" result="effect1_backgroundBlur_371_20225"/>
<feBlend mode="normal" in="SourceGraphic" in2="effect1_backgroundBlur_371_20225" result="shape"/>
</filter>
<filter id="filter1_b_371_20225" x="-10" y="-10" width="60" height="60" filterUnits="userSpaceOnUse" color-interpolation-filters="sRGB">
<feFlood flood-opacity="0" result="BackgroundImageFix"/>
<feGaussianBlur in="BackgroundImageFix" stdDeviation="5"/>
<feComposite in2="SourceAlpha" operator="in" result="effect1_backgroundBlur_371_20225"/>
<feBlend mode="normal" in="SourceGraphic" in2="effect1_backgroundBlur_371_20225" result="shape"/>
</filter>
</defs>
</svg>
