<svg width="40" height="40" viewBox="0 0 40 40" fill="none" xmlns="http://www.w3.org/2000/svg">
<g clip-path="url(#clip0_289_9162)">
<path d="M20 40C31.0457 40 40 31.0457 40 20C40 8.95431 31.0457 0 20 0C8.95431 0 0 8.95431 0 20C0 31.0457 8.95431 40 20 40Z" fill="url(#paint0_linear_289_9162)"/>
<path d="M34.3176 20.2437H30.7919C30.7919 13.0586 24.9468 7.23413 17.736 7.23413C10.6145 7.23413 4.82467 12.916 4.68297 19.9781C4.53637 27.2781 11.4095 33.6172 18.7364 33.6172H19.658C26.1175 33.6172 34.7753 28.5784 36.128 22.4392C36.3778 21.3075 35.4807 20.2437 34.3176 20.2437ZM12.4966 20.5639C12.4966 21.5247 11.7079 22.3106 10.7436 22.3106C9.77936 22.3106 8.99072 21.5243 8.99072 20.5639V17.7381C8.99072 16.7773 9.77936 15.9914 10.7436 15.9914C11.7079 15.9914 12.4966 16.7773 12.4966 17.7381V20.5639ZM18.5834 20.5639C18.5834 21.5247 17.7948 22.3106 16.8306 22.3106C15.8662 22.3106 15.0777 21.5243 15.0777 20.5639V17.7381C15.0777 16.7773 15.8666 15.9914 16.8306 15.9914C17.7948 15.9914 18.5834 16.7773 18.5834 17.7381V20.5639Z" fill="url(#paint1_linear_289_9162)"/>
</g>
<defs>
<linearGradient id="paint0_linear_289_9162" x1="20" y1="0" x2="20" y2="40" gradientUnits="userSpaceOnUse">
<stop stop-color="#534BB1"/>
<stop offset="1" stop-color="#551BF9"/>
</linearGradient>
<linearGradient id="paint1_linear_289_9162" x1="20.4253" y1="7.23413" x2="20.4253" y2="33.6172" gradientUnits="userSpaceOnUse">
<stop stop-color="white"/>
<stop offset="1" stop-color="white" stop-opacity="0.82"/>
</linearGradient>
<clipPath id="clip0_289_9162">
<rect width="40" height="40" fill="white"/>
</clipPath>
</defs>
</svg>
