<svg width="18" height="19" viewBox="0 0 18 19" fill="none" xmlns="http://www.w3.org/2000/svg">
<g opacity="0.5">
<path d="M14.3333 7.5H8.33333C7.59695 7.5 7 8.09695 7 8.83333V14.8333C7 15.5697 7.59695 16.1667 8.33333 16.1667H14.3333C15.0697 16.1667 15.6667 15.5697 15.6667 14.8333V8.83333C15.6667 8.09695 15.0697 7.5 14.3333 7.5Z" stroke="#F9FAFA" stroke-width="1.66666" stroke-linecap="round" stroke-linejoin="round"/>
<path d="M4.33398 11.5H3.66732C3.3137 11.5 2.97456 11.3595 2.72451 11.1095C2.47446 10.8594 2.33398 10.5203 2.33398 10.1667V4.16667C2.33398 3.81305 2.47446 3.47391 2.72451 3.22386C2.97456 2.97381 3.3137 2.83334 3.66732 2.83334H9.66732C10.0209 2.83334 10.3601 2.97381 10.6101 3.22386C10.8602 3.47391 11.0007 3.81305 11.0007 4.16667V4.83334" stroke="#F9FAFA" stroke-width="1.66666" stroke-linecap="round" stroke-linejoin="round"/>
</g>
</svg>
