<svg width="1920" height="6674" viewBox="0 0 1920 6674" fill="none" xmlns="http://www.w3.org/2000/svg">
<g opacity="0.02" clip-path="url(#clip0_171_4293)">
<path d="M60 -2V7226" stroke="#F9FAFA" stroke-width="2"/>
<path d="M160 -2V7226" stroke="#F9FAFA" stroke-width="2"/>
<path d="M260 -2V7226" stroke="#F9FAFA" stroke-width="2"/>
<path d="M360 -2V7226" stroke="#F9FAFA" stroke-width="2"/>
<path d="M460 -2V7226" stroke="#F9FAFA" stroke-width="2"/>
<path d="M560 -2V7226" stroke="#F9FAFA" stroke-width="2"/>
<path d="M660 -2V7226" stroke="#F9FAFA" stroke-width="2"/>
<path d="M760 -2V7226" stroke="#F9FAFA" stroke-width="2"/>
<path d="M860 -2V7226" stroke="#F9FAFA" stroke-width="2"/>
<path d="M960 -2V7226" stroke="#F9FAFA" stroke-width="2"/>
<path d="M1060 -2V7226" stroke="#F9FAFA" stroke-width="2"/>
<path d="M1160 -2V7226" stroke="#F9FAFA" stroke-width="2"/>
<path d="M1260 -2V7226" stroke="#F9FAFA" stroke-width="2"/>
<path d="M1360 -2V7226" stroke="#F9FAFA" stroke-width="2"/>
<path d="M1460 -2V7226" stroke="#F9FAFA" stroke-width="2"/>
<path d="M1560 -2V7226" stroke="#F9FAFA" stroke-width="2"/>
<path d="M1660 -2V7226" stroke="#F9FAFA" stroke-width="2"/>
<path d="M1760 -2V7226" stroke="#F9FAFA" stroke-width="2"/>
<path d="M1860 -2V7226" stroke="#F9FAFA" stroke-width="2"/>
<path d="M0 98L1920 97.9998" stroke="#F9FAFA" stroke-width="2"/>
<path d="M0 198L1920 198" stroke="#F9FAFA" stroke-width="2"/>
<path d="M0 298L1920 298" stroke="#F9FAFA" stroke-width="2"/>
<path d="M0 398L1920 398" stroke="#F9FAFA" stroke-width="2"/>
<path d="M0 498L1920 498" stroke="#F9FAFA" stroke-width="2"/>
<path d="M0 598L1920 598" stroke="#F9FAFA" stroke-width="2"/>
<path d="M0 698L1920 698" stroke="#F9FAFA" stroke-width="2"/>
<path d="M0 798L1920 798" stroke="#F9FAFA" stroke-width="2"/>
<path d="M0 898L1920 898" stroke="#F9FAFA" stroke-width="2"/>
<path d="M0 998L1920 998" stroke="#F9FAFA" stroke-width="2"/>
<path d="M0 1098L1920 1098" stroke="#F9FAFA" stroke-width="2"/>
<path d="M0 1198L1920 1198" stroke="#F9FAFA" stroke-width="2"/>
<path d="M0 1298L1920 1298" stroke="#F9FAFA" stroke-width="2"/>
<path d="M0 1398L1920 1398" stroke="#F9FAFA" stroke-width="2"/>
<path d="M0 1498L1920 1498" stroke="#F9FAFA" stroke-width="2"/>
<path d="M0 1598L1920 1598" stroke="#F9FAFA" stroke-width="2"/>
<path d="M0 1698L1920 1698" stroke="#F9FAFA" stroke-width="2"/>
<path d="M0 1798L1920 1798" stroke="#F9FAFA" stroke-width="2"/>
<path d="M0 1898L1920 1898" stroke="#F9FAFA" stroke-width="2"/>
<path d="M0 1998L1920 1998" stroke="#F9FAFA" stroke-width="2"/>
<path d="M0 2098L1920 2098" stroke="#F9FAFA" stroke-width="2"/>
<path d="M0 2198L1920 2198" stroke="#F9FAFA" stroke-width="2"/>
<path d="M0 2298L1920 2298" stroke="#F9FAFA" stroke-width="2"/>
<path d="M0 2398L1920 2398" stroke="#F9FAFA" stroke-width="2"/>
<path d="M0 2498L1920 2498" stroke="#F9FAFA" stroke-width="2"/>
<path d="M0 2598L1920 2598" stroke="#F9FAFA" stroke-width="2"/>
<path d="M0 2698L1920 2698" stroke="#F9FAFA" stroke-width="2"/>
<path d="M0 2798L1920 2798" stroke="#F9FAFA" stroke-width="2"/>
<path d="M0 2898L1920 2898" stroke="#F9FAFA" stroke-width="2"/>
<path d="M0 2998L1920 2998" stroke="#F9FAFA" stroke-width="2"/>
<path d="M0 3098L1920 3098" stroke="#F9FAFA" stroke-width="2"/>
<path d="M0 3198L1920 3198" stroke="#F9FAFA" stroke-width="2"/>
<path d="M0 3298L1920 3298" stroke="#F9FAFA" stroke-width="2"/>
<path d="M0 3398L1920 3398" stroke="#F9FAFA" stroke-width="2"/>
<path d="M0 3498L1920 3498" stroke="#F9FAFA" stroke-width="2"/>
<path d="M0 3598L1920 3598" stroke="#F9FAFA" stroke-width="2"/>
<path d="M0 3698L1920 3698" stroke="#F9FAFA" stroke-width="2"/>
<path d="M0 3798L1920 3798" stroke="#F9FAFA" stroke-width="2"/>
<path d="M0 3898L1920 3898" stroke="#F9FAFA" stroke-width="2"/>
<path d="M0 3998L1920 3998" stroke="#F9FAFA" stroke-width="2"/>
<path d="M0 4098L1920 4098" stroke="#F9FAFA" stroke-width="2"/>
<path d="M0 4198L1920 4198" stroke="#F9FAFA" stroke-width="2"/>
<path d="M0 4298L1920 4298" stroke="#F9FAFA" stroke-width="2"/>
<path d="M0 4398L1920 4398" stroke="#F9FAFA" stroke-width="2"/>
<path d="M0 4498L1920 4498" stroke="#F9FAFA" stroke-width="2"/>
<path d="M0 4598L1920 4598" stroke="#F9FAFA" stroke-width="2"/>
<path d="M0 4698L1920 4698" stroke="#F9FAFA" stroke-width="2"/>
<path d="M0 4798L1920 4798" stroke="#F9FAFA" stroke-width="2"/>
<path d="M0 4898L1920 4898" stroke="#F9FAFA" stroke-width="2"/>
<path d="M0 4998L1920 4998" stroke="#F9FAFA" stroke-width="2"/>
<path d="M0 5098L1920 5098" stroke="#F9FAFA" stroke-width="2"/>
<path d="M0 5198L1920 5198" stroke="#F9FAFA" stroke-width="2"/>
<path d="M0 5298L1920 5298" stroke="#F9FAFA" stroke-width="2"/>
<path d="M0 5398L1920 5398" stroke="#F9FAFA" stroke-width="2"/>
<path d="M0 5498L1920 5498" stroke="#F9FAFA" stroke-width="2"/>
<path d="M0 5598L1920 5598" stroke="#F9FAFA" stroke-width="2"/>
<path d="M0 5698L1920 5698" stroke="#F9FAFA" stroke-width="2"/>
<path d="M0 5798L1920 5798" stroke="#F9FAFA" stroke-width="2"/>
<path d="M0 5898L1920 5898" stroke="#F9FAFA" stroke-width="2"/>
<path d="M0 5998L1920 5998" stroke="#F9FAFA" stroke-width="2"/>
<path d="M0 6098L1920 6098" stroke="#F9FAFA" stroke-width="2"/>
<path d="M0 6198L1920 6198" stroke="#F9FAFA" stroke-width="2"/>
<path d="M0 6298L1920 6298" stroke="#F9FAFA" stroke-width="2"/>
<path d="M0 6398L1920 6398" stroke="#F9FAFA" stroke-width="2"/>
<path d="M0 6498L1920 6498" stroke="#F9FAFA" stroke-width="2"/>
<path d="M0 6598L1920 6598" stroke="#F9FAFA" stroke-width="2"/>
</g>
<defs>
<clipPath id="clip0_171_4293">
<rect width="1920" height="7228" fill="white" transform="translate(0 -2)"/>
</clipPath>
</defs>
</svg>
