<svg width="50" height="50" viewBox="0 0 50 50" fill="none" xmlns="http://www.w3.org/2000/svg">
<path d="M45.4191 16.8111C46.5591 19.6535 47.093 22.7027 46.9868 25.7634C46.8805 28.8241 46.1364 31.8288 44.802 34.5854C43.4677 37.342 41.5725 39.7896 39.2378 41.7715C36.9031 43.7535 34.1803 45.2262 31.2437 46.0954C28.3071 46.9646 25.2214 47.211 22.1841 46.819C19.1467 46.427 16.2247 45.4052 13.605 43.819C10.9853 42.2327 8.72562 40.117 6.97062 37.6072C5.21563 35.0974 4.00397 32.2488 3.4132 29.2438L10.5167 27.8473C10.9131 29.8635 11.726 31.7747 12.9035 33.4586C14.081 35.1425 15.5971 36.562 17.3547 37.6263C19.1124 38.6905 21.0729 39.3761 23.1107 39.6391C25.1486 39.9021 27.2189 39.7368 29.1891 39.1536C31.1594 38.5705 32.9862 37.5824 34.5526 36.2526C36.119 34.9228 37.3906 33.2806 38.2858 31.4312C39.1811 29.5817 39.6803 27.5657 39.7516 25.5122C39.8229 23.4587 39.4647 21.4129 38.6999 19.5058L45.4191 16.8111Z" fill="url(#paint0_linear_269_5460)"/>
<circle cx="25" cy="25" r="17" fill="#BEFF55"/>
<path d="M26.39 25.9919C26.1119 26.2699 26.1119 26.7207 26.39 26.9987C26.668 27.2767 27.1188 27.2767 27.3968 26.9987L26.39 25.9919ZM22.5513 19.762L27.2395 24.4501L28.2463 23.4433L23.5582 18.7551L22.5513 19.762ZM21.0411 29.8305L16.762 25.5514L15.7551 26.5582L20.0342 30.8373L21.0411 29.8305ZM16.762 24.0411L21.0411 19.762L20.0342 18.7551L15.7551 23.0342L16.762 24.0411ZM24.6909 27.6909L22.5513 29.8305L23.5582 30.8373L25.6977 28.6978L24.6909 27.6909ZM27.2395 25.1423L26.39 25.9919L27.3968 26.9987L28.2463 26.1492L27.2395 25.1423ZM16.762 25.5514C16.3449 25.1343 16.3449 24.4581 16.762 24.0411L15.7551 23.0342C14.782 24.0074 14.782 25.5851 15.7551 26.5582L16.762 25.5514ZM20.0342 30.8373C21.0073 31.8104 22.5851 31.8104 23.5582 30.8373L22.5513 29.8305C22.1343 30.2475 21.4581 30.2475 21.0411 29.8305L20.0342 30.8373ZM27.2395 24.4501C27.4306 24.6413 27.4306 24.9512 27.2395 25.1423L28.2463 26.1492C28.9935 25.402 28.9935 24.1905 28.2463 23.4433L27.2395 24.4501ZM23.5582 18.7551C22.5851 17.782 21.0073 17.782 20.0342 18.7551L21.0411 19.762C21.4581 19.3449 22.1343 19.3449 22.5513 19.762L23.5582 18.7551Z" fill="#0C0C0C"/>
<path d="M23.61 23.6007C23.888 23.3226 23.888 22.8719 23.61 22.5938C23.332 22.3158 22.8812 22.3158 22.6031 22.5938L23.61 23.6007ZM27.4486 29.8305L22.7605 25.1424L21.7536 26.1493L26.4418 30.8374L27.4486 29.8305ZM28.9589 19.7621L33.238 24.0412L34.2448 23.0343L29.9657 18.7552L28.9589 19.7621ZM33.238 25.5514L28.9589 29.8305L29.9657 30.8374L34.2448 26.5583L33.238 25.5514ZM25.309 21.9016L27.4486 19.7621L26.4418 18.7552L24.3022 20.8948L25.309 21.9016ZM22.7605 24.4502L23.61 23.6007L22.6031 22.5938L21.7536 23.4433L22.7605 24.4502ZM33.238 24.0412C33.655 24.4582 33.655 25.1344 33.238 25.5514L34.2448 26.5583C35.2179 25.5852 35.2179 24.0074 34.2448 23.0343L33.238 24.0412ZM29.9657 18.7552C28.9926 17.7821 27.4149 17.7821 26.4418 18.7552L27.4486 19.7621C27.8656 19.345 28.5418 19.345 28.9589 19.7621L29.9657 18.7552ZM22.7605 25.1424C22.5693 24.9513 22.5693 24.6413 22.7605 24.4502L21.7536 23.4433C21.0064 24.1906 21.0064 25.402 21.7536 26.1493L22.7605 25.1424ZM26.4418 30.8374C27.4149 31.8105 28.9926 31.8105 29.9657 30.8374L28.9589 29.8305C28.5418 30.2476 27.8656 30.2476 27.4486 29.8305L26.4418 30.8374Z" fill="#0C0C0C"/>
<circle cx="8" cy="10" r="2" fill="#BEFF55"/>
<defs>
<linearGradient id="paint0_linear_269_5460" x1="8.5" y1="32.5" x2="41.5" y2="11.5" gradientUnits="userSpaceOnUse">
<stop stop-color="#BEFF55"/>
<stop offset="1" stop-color="#BEFF55" stop-opacity="0"/>
</linearGradient>
</defs>
</svg>
