<svg width="113" height="50" viewBox="0 0 113 50" fill="none" xmlns="http://www.w3.org/2000/svg">
<path d="M45.4191 16.8111C46.5591 19.6535 47.093 22.7027 46.9868 25.7634C46.8805 28.8241 46.1364 31.8288 44.802 34.5854C43.4677 37.342 41.5725 39.7896 39.2378 41.7715C36.9031 43.7535 34.1803 45.2262 31.2437 46.0954C28.3071 46.9646 25.2214 47.211 22.1841 46.819C19.1467 46.427 16.2247 45.4052 13.605 43.819C10.9853 42.2327 8.72562 40.117 6.97062 37.6072C5.21563 35.0974 4.00397 32.2488 3.4132 29.2438L10.5167 27.8473C10.9131 29.8635 11.726 31.7747 12.9035 33.4586C14.081 35.1425 15.5971 36.562 17.3547 37.6263C19.1124 38.6905 21.0729 39.3761 23.1107 39.6391C25.1486 39.9021 27.2189 39.7368 29.1891 39.1536C31.1594 38.5705 32.9862 37.5824 34.5526 36.2526C36.119 34.9228 37.3906 33.2806 38.2858 31.4312C39.1811 29.5817 39.6803 27.5657 39.7516 25.5122C39.8229 23.4587 39.4647 21.4129 38.6999 19.5058L45.4191 16.8111Z" fill="url(#paint0_linear_382_584)"/>
<circle cx="25" cy="25" r="17" fill="#BEFF55"/>
<path d="M26.3899 25.9919C26.1119 26.2699 26.1119 26.7207 26.3899 26.9987C26.6679 27.2767 27.1187 27.2767 27.3967 26.9987L26.3899 25.9919ZM22.5513 19.762L27.2394 24.4501L28.2463 23.4433L23.5581 18.7551L22.5513 19.762ZM21.041 29.8305L16.7619 25.5514L15.7551 26.5582L20.0342 30.8373L21.041 29.8305ZM16.7619 24.0411L21.041 19.762L20.0342 18.7551L15.7551 23.0342L16.7619 24.0411ZM24.6908 27.6909L22.5513 29.8305L23.5581 30.8373L25.6977 28.6978L24.6908 27.6909ZM27.2394 25.1423L26.3899 25.9919L27.3967 26.9987L28.2463 26.1492L27.2394 25.1423ZM16.7619 25.5514C16.3448 25.1343 16.3448 24.4581 16.7619 24.0411L15.7551 23.0342C14.7819 24.0074 14.7819 25.5851 15.7551 26.5582L16.7619 25.5514ZM20.0342 30.8373C21.0073 31.8104 22.585 31.8104 23.5581 30.8373L22.5513 29.8305C22.1342 30.2475 21.4581 30.2475 21.041 29.8305L20.0342 30.8373ZM27.2394 24.4501C27.4306 24.6413 27.4306 24.9512 27.2394 25.1423L28.2463 26.1492C28.9935 25.402 28.9935 24.1905 28.2463 23.4433L27.2394 24.4501ZM23.5581 18.7551C22.585 17.782 21.0073 17.782 20.0342 18.7551L21.041 19.762C21.4581 19.3449 22.1342 19.3449 22.5513 19.762L23.5581 18.7551Z" fill="#0C0C0C"/>
<path d="M23.61 23.6007C23.888 23.3226 23.888 22.8719 23.61 22.5938C23.332 22.3158 22.8812 22.3158 22.6031 22.5938L23.61 23.6007ZM27.4486 29.8305L22.7605 25.1424L21.7536 26.1493L26.4418 30.8374L27.4486 29.8305ZM28.9589 19.7621L33.238 24.0412L34.2448 23.0343L29.9657 18.7552L28.9589 19.7621ZM33.238 25.5514L28.9589 29.8305L29.9657 30.8374L34.2448 26.5583L33.238 25.5514ZM25.309 21.9016L27.4486 19.7621L26.4418 18.7552L24.3022 20.8948L25.309 21.9016ZM22.7605 24.4502L23.61 23.6007L22.6031 22.5938L21.7536 23.4433L22.7605 24.4502ZM33.238 24.0412C33.655 24.4582 33.655 25.1344 33.238 25.5514L34.2448 26.5583C35.2179 25.5852 35.2179 24.0074 34.2448 23.0343L33.238 24.0412ZM29.9657 18.7552C28.9926 17.7821 27.4149 17.7821 26.4418 18.7552L27.4486 19.7621C27.8656 19.345 28.5418 19.345 28.9589 19.7621L29.9657 18.7552ZM22.7605 25.1424C22.5693 24.9513 22.5693 24.6413 22.7605 24.4502L21.7536 23.4433C21.0064 24.1906 21.0064 25.402 21.7536 26.1493L22.7605 25.1424ZM26.4418 30.8374C27.4149 31.8105 28.9926 31.8105 29.9657 30.8374L28.9589 29.8305C28.5418 30.2476 27.8656 30.2476 27.4486 29.8305L26.4418 30.8374Z" fill="#0C0C0C"/>
<circle cx="8" cy="10" r="2" fill="#BEFF55"/>
<path d="M62.272 21.234C60.352 21.234 58.774 20.604 57.538 19.344C56.302 18.096 55.684 16.548 55.684 14.7C55.684 12.852 56.302 11.304 57.538 10.056C58.774 8.796 60.352 8.166 62.272 8.166C63.412 8.166 64.468 8.442 65.44 8.994C66.412 9.546 67.168 10.29 67.708 11.226L66.25 12.072C65.89 11.376 65.35 10.824 64.63 10.416C63.922 9.996 63.136 9.786 62.272 9.786C60.808 9.786 59.62 10.254 58.708 11.19C57.796 12.114 57.34 13.284 57.34 14.7C57.34 16.104 57.796 17.268 58.708 18.192C59.62 19.128 60.808 19.596 62.272 19.596C63.136 19.596 63.922 19.392 64.63 18.984C65.35 18.564 65.89 18.012 66.25 17.328L67.708 18.156C67.18 19.092 66.43 19.842 65.458 20.406C64.498 20.958 63.436 21.234 62.272 21.234ZM71.0606 12V13.512C71.5766 12.396 72.5126 11.838 73.8686 11.838V13.476C73.1006 13.44 72.4406 13.644 71.8886 14.088C71.3366 14.532 71.0606 15.246 71.0606 16.23V21H69.4946V12H71.0606ZM79.2843 19.056L81.8763 12H83.5503L79.8783 21.558C79.4823 22.578 78.9363 23.352 78.2403 23.88C77.5563 24.42 76.7703 24.66 75.8823 24.6V23.142C76.9863 23.226 77.7963 22.614 78.3123 21.306L78.4743 20.964L74.5503 12H76.2243L79.2843 19.056ZM89.8259 11.766C91.0859 11.766 92.1599 12.228 93.0479 13.152C93.9359 14.076 94.3799 15.192 94.3799 16.5C94.3799 17.82 93.9359 18.942 93.0479 19.866C92.1719 20.778 91.0979 21.234 89.8259 21.234C88.3379 21.234 87.2039 20.64 86.4239 19.452V24.6H84.8579V12H86.4239V13.548C87.2039 12.36 88.3379 11.766 89.8259 11.766ZM89.6279 19.722C90.5279 19.722 91.2839 19.416 91.8959 18.804C92.5079 18.168 92.8139 17.4 92.8139 16.5C92.8139 15.588 92.5079 14.826 91.8959 14.214C91.2839 13.59 90.5279 13.278 89.6279 13.278C88.7159 13.278 87.9539 13.59 87.3419 14.214C86.7299 14.826 86.4239 15.588 86.4239 16.5C86.4239 17.4 86.7299 18.168 87.3419 18.804C87.9539 19.416 88.7159 19.722 89.6279 19.722ZM100.951 12V13.512H98.5572V18.39C98.5572 18.834 98.6412 19.152 98.8092 19.344C98.9892 19.524 99.2592 19.62 99.6192 19.632C99.9792 19.632 100.423 19.62 100.951 19.596V21C99.5712 21.18 98.5632 21.066 97.9272 20.658C97.3032 20.25 96.9912 19.494 96.9912 18.39V13.512H95.2092V12H96.9912V9.948L98.5572 9.48V12H100.951ZM109.944 19.866C109.032 20.778 107.91 21.234 106.578 21.234C105.246 21.234 104.124 20.778 103.212 19.866C102.3 18.954 101.844 17.832 101.844 16.5C101.844 15.168 102.3 14.046 103.212 13.134C104.124 12.222 105.246 11.766 106.578 11.766C107.91 11.766 109.032 12.222 109.944 13.134C110.868 14.058 111.33 15.18 111.33 16.5C111.33 17.82 110.868 18.942 109.944 19.866ZM106.578 19.704C107.478 19.704 108.234 19.398 108.846 18.786C109.458 18.174 109.764 17.412 109.764 16.5C109.764 15.588 109.458 14.826 108.846 14.214C108.234 13.602 107.478 13.296 106.578 13.296C105.69 13.296 104.94 13.602 104.328 14.214C103.716 14.826 103.41 15.588 103.41 16.5C103.41 17.412 103.716 18.174 104.328 18.786C104.94 19.398 105.69 19.704 106.578 19.704ZM66.25 26.4H68.14V39H66.484V29.154L62.362 36.012H62.146L58.024 29.172V39H56.35V26.4H58.24L62.254 33.06L66.25 26.4ZM78.1244 31.548V30H79.6904V39H78.1244V37.452C77.3564 38.64 76.2224 39.234 74.7224 39.234C73.4504 39.234 72.3764 38.778 71.5004 37.866C70.6124 36.942 70.1684 35.82 70.1684 34.5C70.1684 33.192 70.6124 32.076 71.5004 31.152C72.3884 30.228 73.4624 29.766 74.7224 29.766C76.2224 29.766 77.3564 30.36 78.1244 31.548ZM74.9204 37.722C75.8324 37.722 76.5944 37.416 77.2064 36.804C77.8184 36.168 78.1244 35.4 78.1244 34.5C78.1244 33.588 77.8184 32.826 77.2064 32.214C76.5944 31.59 75.8324 31.278 74.9204 31.278C74.0204 31.278 73.2644 31.59 72.6524 32.214C72.0404 32.826 71.7344 33.588 71.7344 34.5C71.7344 35.4 72.0404 36.168 72.6524 36.804C73.2644 37.416 74.0204 37.722 74.9204 37.722ZM83.629 30V31.512C84.145 30.396 85.081 29.838 86.437 29.838V31.476C85.669 31.44 85.009 31.644 84.457 32.088C83.905 32.532 83.629 33.246 83.629 34.23V39H82.063V30H83.629ZM91.1373 34.356L95.5833 39H93.6393L89.5353 34.734V39H87.9692V26.4H89.5353V33.978L93.4233 30H95.4393L91.1373 34.356ZM104.853 35.22H97.3114C97.4674 36.012 97.8334 36.636 98.4094 37.092C98.9854 37.536 99.7054 37.758 100.569 37.758C101.757 37.758 102.621 37.32 103.161 36.444L104.493 37.2C103.605 38.556 102.285 39.234 100.533 39.234C99.1174 39.234 97.9534 38.79 97.0414 37.902C96.1534 36.99 95.7094 35.856 95.7094 34.5C95.7094 33.132 96.1474 32.004 97.0234 31.116C97.8994 30.216 99.0334 29.766 100.425 29.766C101.745 29.766 102.819 30.234 103.647 31.17C104.487 32.082 104.907 33.198 104.907 34.518C104.907 34.746 104.889 34.98 104.853 35.22ZM100.425 31.242C99.5974 31.242 98.9014 31.476 98.3374 31.944C97.7854 32.412 97.4434 33.048 97.3114 33.852H103.323C103.191 33.024 102.861 32.382 102.333 31.926C101.805 31.47 101.169 31.242 100.425 31.242ZM111.34 30V31.512H108.946V36.39C108.946 36.834 109.03 37.152 109.198 37.344C109.378 37.524 109.648 37.62 110.008 37.632C110.368 37.632 110.812 37.62 111.34 37.596V39C109.96 39.18 108.952 39.066 108.316 38.658C107.692 38.25 107.38 37.494 107.38 36.39V31.512H105.598V30H107.38V27.948L108.946 27.48V30H111.34Z" fill="#F9FAFA"/>
<defs>
<linearGradient id="paint0_linear_382_584" x1="8.5" y1="32.5" x2="41.5" y2="11.5" gradientUnits="userSpaceOnUse">
<stop stop-color="#BEFF55"/>
<stop offset="1" stop-color="#BEFF55" stop-opacity="0"/>
</linearGradient>
</defs>
</svg>
