<svg width="20" height="20" viewBox="0 0 20 20" fill="none" xmlns="http://www.w3.org/2000/svg">
<path d="M19.7556 18.5778L14.0682 12.8904C15.1699 11.5296 15.8332 9.80039 15.8332 7.91709C15.8332 3.55213 12.2815 0.000488281 7.91656 0.000488281C3.55161 0.000488281 0 3.55209 0 7.91705C0 12.282 3.55165 15.8337 7.9166 15.8337C9.7999 15.8337 11.5291 15.1703 12.8899 14.0687L18.5773 19.7561C18.7398 19.9186 18.9531 20.0003 19.1665 20.0003C19.3799 20.0003 19.5932 19.9186 19.7557 19.7561C20.0815 19.4303 20.0815 18.9036 19.7556 18.5778ZM7.9166 14.167C4.46996 14.167 1.66666 11.3637 1.66666 7.91705C1.66666 4.47041 4.46996 1.66711 7.9166 1.66711C11.3632 1.66711 14.1665 4.47041 14.1665 7.91705C14.1665 11.3637 11.3632 14.167 7.9166 14.167Z" fill="#F9FAFA" fill-opacity="0.5"/>
</svg>
