<svg width="40" height="40" viewBox="0 0 40 40" fill="none" xmlns="http://www.w3.org/2000/svg">
<g filter="url(#filter0_b_171_4428)">
<g filter="url(#filter1_b_171_4428)">
<rect width="40" height="40" rx="10" fill="#F9FAFA" fill-opacity="0.05"/>
</g>
<path d="M24.9492 13H15.0508C13.9201 13 13 13.9201 13 15.0508V24.9492C13 26.0799 13.9201 27 15.0508 27H19.1797V22.0508H17.5391V19.5898H19.1797V17.9219C19.1797 16.5648 20.2836 15.4609 21.6406 15.4609H24.1289V17.9219H21.6406V19.5898H24.1289L23.7188 22.0508H21.6406V27H24.9492C26.0799 27 27 26.0799 27 24.9492V15.0508C27 13.9201 26.0799 13 24.9492 13Z" fill="#F9FAFA"/>
</g>
<defs>
<filter id="filter0_b_171_4428" x="-10" y="-10" width="60" height="60" filterUnits="userSpaceOnUse" color-interpolation-filters="sRGB">
<feFlood flood-opacity="0" result="BackgroundImageFix"/>
<feGaussianBlur in="BackgroundImageFix" stdDeviation="5"/>
<feComposite in2="SourceAlpha" operator="in" result="effect1_backgroundBlur_171_4428"/>
<feBlend mode="normal" in="SourceGraphic" in2="effect1_backgroundBlur_171_4428" result="shape"/>
</filter>
<filter id="filter1_b_171_4428" x="-10" y="-10" width="60" height="60" filterUnits="userSpaceOnUse" color-interpolation-filters="sRGB">
<feFlood flood-opacity="0" result="BackgroundImageFix"/>
<feGaussianBlur in="BackgroundImageFix" stdDeviation="5"/>
<feComposite in2="SourceAlpha" operator="in" result="effect1_backgroundBlur_171_4428"/>
<feBlend mode="normal" in="SourceGraphic" in2="effect1_backgroundBlur_171_4428" result="shape"/>
</filter>
</defs>
</svg>
