<svg width="40" height="40" viewBox="0 0 40 40" fill="none" xmlns="http://www.w3.org/2000/svg">
<g filter="url(#filter0_b_136_2418)">
<rect width="40" height="40" rx="10" fill="#05070A" fill-opacity="0.3"/>
</g>
<g clip-path="url(#clip0_136_2418)">
<path d="M17.508 23.9376C17.3659 23.9371 17.2293 23.8828 17.1255 23.7857C16.6119 23.298 16.2028 22.7109 15.9233 22.0601C15.6438 21.4092 15.4996 20.7084 15.4996 20.0001C15.4996 19.2918 15.6438 18.5909 15.9233 17.94C16.2028 17.2892 16.6119 16.7021 17.1255 16.2144C17.2362 16.1247 17.3768 16.0803 17.519 16.0902C17.6612 16.1001 17.7943 16.1637 17.8914 16.2679C17.9885 16.3722 18.0425 16.5095 18.0423 16.652C18.0421 16.7945 17.9879 16.9316 17.8905 17.0357C17.4907 17.4189 17.1725 17.8791 16.9551 18.3886C16.7378 18.898 16.6257 19.4462 16.6257 20.0001C16.6257 20.5539 16.7378 21.1021 16.9551 21.6115C17.1725 22.121 17.4907 22.5812 17.8905 22.9644C17.9728 23.0414 18.03 23.1414 18.0548 23.2513C18.0796 23.3612 18.0708 23.476 18.0296 23.5808C17.9884 23.6857 17.9166 23.7757 17.8236 23.8394C17.7306 23.903 17.6207 23.9372 17.508 23.9376ZM15.258 25.4451C15.3628 25.3397 15.4216 25.1971 15.4216 25.0485C15.4216 24.8999 15.3628 24.7573 15.258 24.6519C14.6287 24.0515 14.1278 23.3297 13.7855 22.5301C13.4432 21.7305 13.2668 20.8698 13.2668 20.0001C13.2668 19.1303 13.4432 18.2696 13.7855 17.47C14.1278 16.6704 14.6287 15.9486 15.258 15.3482C15.3669 15.243 15.4296 15.0989 15.4322 14.9475C15.4349 14.7961 15.3773 14.6499 15.2721 14.541C15.1669 14.4321 15.0228 14.3694 14.8714 14.3668C14.72 14.3641 14.5738 14.4218 14.4649 14.5269C13.7239 15.233 13.134 16.0821 12.731 17.0229C12.3279 17.9637 12.1201 18.9766 12.1201 20.0001C12.1201 21.0235 12.3279 22.0364 12.731 22.9772C13.134 23.918 13.7239 24.7671 14.4649 25.4732C14.519 25.5241 14.5827 25.5638 14.6523 25.59C14.7218 25.6161 14.7959 25.6283 14.8701 25.6256C14.9444 25.623 15.0174 25.6057 15.085 25.5747C15.1525 25.5437 15.2132 25.4997 15.2636 25.4451H15.258ZM22.8686 23.7857C23.3823 23.298 23.7914 22.7109 24.0709 22.0601C24.3504 21.4092 24.4946 20.7084 24.4946 20.0001C24.4946 19.2918 24.3504 18.5909 24.0709 17.94C23.7914 17.2892 23.3823 16.7021 22.8686 16.2144C22.8147 16.1638 22.7514 16.1243 22.6822 16.0982C22.613 16.0721 22.5393 16.0599 22.4654 16.0622C22.3915 16.0646 22.3188 16.0815 22.2514 16.1119C22.184 16.1424 22.1233 16.1858 22.0727 16.2397C22.0221 16.2937 21.9826 16.357 21.9565 16.4262C21.9304 16.4954 21.9182 16.569 21.9205 16.643C21.9229 16.7169 21.9398 16.7896 21.9702 16.857C22.0007 16.9244 22.0441 16.9851 22.098 17.0357C22.5 17.4177 22.8201 17.8775 23.0389 18.3871C23.2576 18.8967 23.3704 19.4455 23.3704 20.0001C23.3704 20.5546 23.2576 21.1034 23.0389 21.613C22.8201 22.1226 22.5 22.5824 22.098 22.9644C21.9894 23.0661 21.9255 23.2066 21.9202 23.3552C21.915 23.5038 21.9688 23.6485 22.0699 23.7576C22.123 23.8148 22.1874 23.8604 22.2591 23.8914C22.3307 23.9223 22.4081 23.9381 22.4861 23.9376C22.6283 23.9371 22.7649 23.8828 22.8686 23.7857ZM25.5236 25.4732C26.2668 24.7684 26.8586 23.9196 27.263 22.9787C27.6675 22.0377 27.876 21.0243 27.876 20.0001C27.876 18.9759 27.6675 17.9624 27.263 17.0214C26.8586 16.0805 26.2668 15.2317 25.5236 14.5269C25.413 14.4372 25.2723 14.3928 25.1302 14.4027C24.988 14.4126 24.8549 14.4762 24.7578 14.5804C24.6606 14.6847 24.6067 14.822 24.6069 14.9645C24.607 15.107 24.6613 15.2441 24.7586 15.3482C25.388 15.9486 25.8889 16.6704 26.2312 17.47C26.5734 18.2696 26.7499 19.1303 26.7499 20.0001C26.7499 20.8698 26.5734 21.7305 26.2312 22.5301C25.8889 23.3297 25.388 24.0515 24.7586 24.6519C24.6501 24.7536 24.5861 24.8941 24.5809 25.0427C24.5756 25.1913 24.6294 25.336 24.7305 25.4451C24.783 25.5016 24.8465 25.5468 24.9171 25.5777C24.9878 25.6087 25.064 25.6248 25.1411 25.6251C25.2833 25.6246 25.4199 25.5703 25.5236 25.4732ZM21.1249 20.0001C21.1249 19.7775 21.0589 19.56 20.9353 19.375C20.8117 19.19 20.636 19.0458 20.4304 18.9607C20.2249 18.8755 19.9987 18.8533 19.7804 18.8967C19.5622 18.9401 19.3617 19.0472 19.2044 19.2046C19.0471 19.3619 18.9399 19.5623 18.8965 19.7806C18.8531 19.9988 18.8754 20.225 18.9605 20.4306C19.0457 20.6361 19.1899 20.8118 19.3749 20.9355C19.5599 21.0591 19.7774 21.1251 19.9999 21.1251C20.2983 21.1251 20.5844 21.0065 20.7954 20.7955C21.0064 20.5846 21.1249 20.2984 21.1249 20.0001Z" fill="#F9FAFA"/>
</g>
<defs>
<filter id="filter0_b_136_2418" x="-10" y="-10" width="60" height="60" filterUnits="userSpaceOnUse" color-interpolation-filters="sRGB">
<feFlood flood-opacity="0" result="BackgroundImageFix"/>
<feGaussianBlur in="BackgroundImageFix" stdDeviation="5"/>
<feComposite in2="SourceAlpha" operator="in" result="effect1_backgroundBlur_136_2418"/>
<feBlend mode="normal" in="SourceGraphic" in2="effect1_backgroundBlur_136_2418" result="shape"/>
</filter>
<clipPath id="clip0_136_2418">
<rect width="18" height="18" fill="white" transform="translate(11 11)"/>
</clipPath>
</defs>
</svg>
