<svg width="40" height="40" viewBox="0 0 40 40" fill="none" xmlns="http://www.w3.org/2000/svg">
<g filter="url(#filter0_b_136_823)">
<rect width="40" height="40" rx="10" fill="#05070A" fill-opacity="0.3"/>
</g>
<path d="M15.4297 17.9258C17.5391 15.1133 16.4844 11.5273 16.4844 11.5273C16.4848 11.5275 21.4062 13.707 21.1749 19.6836C23.1641 18.9805 23.8672 15.4648 23.8672 15.4648C23.8672 15.4648 26.3281 18.6289 26.3281 22.1445C26.3281 25.6394 23.4949 28.4727 20 28.4727C16.5051 28.4727 13.6719 25.6394 13.6719 22.1441C13.672 20.5991 14.5274 19.1288 15.4297 17.9258Z" stroke="#F9FAFA" stroke-miterlimit="10" stroke-linecap="round" stroke-linejoin="round"/>
<path d="M17.7148 23.1992C18.7695 21.793 18.2422 20.0352 18.2422 20.0352C18.2424 20.0352 20.7031 21.0898 20.5874 24.0781C21.582 23.7266 21.9336 21.9688 21.9336 21.9688C21.9336 21.9688 23.1641 23.5508 23.1641 25.3086C23.1641 27.0561 21.7475 28.4727 20 28.4727C18.2525 28.4727 16.8359 27.0561 16.8359 25.3084C16.836 24.5359 17.2637 23.8007 17.7148 23.1992Z" stroke="#F9FAFA" stroke-miterlimit="10" stroke-linecap="round" stroke-linejoin="round"/>
<path d="M27.0312 12.0547C27.0312 12.3459 26.7951 12.582 26.5039 12.582C26.2127 12.582 25.9766 12.3459 25.9766 12.0547C25.9766 11.7635 26.2127 11.5273 26.5039 11.5273C26.7951 11.5273 27.0312 11.7635 27.0312 12.0547Z" fill="#F9FAFA"/>
<path d="M23.1641 12.0547C23.1641 12.3459 22.928 12.582 22.6367 12.582C22.3455 12.582 22.1094 12.3459 22.1094 12.0547C22.1094 11.7635 22.3455 11.5273 22.6367 11.5273C22.928 11.5273 23.1641 11.7635 23.1641 12.0547Z" fill="#F9FAFA"/>
<path d="M12.9688 14.2344C12.9688 14.5256 13.2049 14.7617 13.4961 14.7617C13.7873 14.7617 14.0234 14.5256 14.0234 14.2344C14.0234 13.9431 13.7873 13.707 13.4961 13.707C13.2049 13.707 12.9688 13.9431 12.9688 14.2344Z" fill="#F9FAFA"/>
<defs>
<filter id="filter0_b_136_823" x="-10" y="-10" width="60" height="60" filterUnits="userSpaceOnUse" color-interpolation-filters="sRGB">
<feFlood flood-opacity="0" result="BackgroundImageFix"/>
<feGaussianBlur in="BackgroundImageFix" stdDeviation="5"/>
<feComposite in2="SourceAlpha" operator="in" result="effect1_backgroundBlur_136_823"/>
<feBlend mode="normal" in="SourceGraphic" in2="effect1_backgroundBlur_136_823" result="shape"/>
</filter>
</defs>
</svg>
